<svg xmlns="http://www.w3.org/2000/svg" viewBox="40 12 240 82" width="240" height="82" role="img" aria-label="Dulux">
<title>Dulux</title>
<path d="M40 86.35H280V92.16H40Z" fill="#EF3E42"/>
<path d="M272.84 32.93C273.39 33.48 273.67 34.31 273.67 35.14C273.67 35.98 273.39 36.81 272.84 37.36C272.29 37.91 271.45 38.19 270.62 38.19C269.79 38.19 268.96 37.91 268.40 37.36C267.85 36.81 267.57 35.98 267.57 35.14C267.57 34.31 267.85 33.76 268.40 32.93C268.96 32.38 269.79 32.10 270.62 32.10C271.45 32.10 272.29 32.38 272.84 32.93ZM273.39 32.65C272.56 31.82 271.73 31.55 270.90 31.55C270.07 31.55 269.24 31.82 268.40 32.65C267.57 33.48 267.29 34.31 267.29 35.42C267.29 36.53 267.57 37.36 268.40 37.91C269.24 38.74 270.07 39.02 270.90 39.02C272.01 39.02 272.84 38.74 273.39 37.91C274.23 37.08 274.50 36.25 274.50 35.42C274.50 34.04 273.95 33.21 273.39 32.65ZM271.18 34.87C271.18 34.87 270.90 35.14 270.62 35.14H270.34V34.04H270.62C270.90 34.04 271.18 34.04 271.18 34.04C271.45 34.04 271.45 34.31 271.45 34.59C271.45 34.59 271.45 34.59 271.18 34.87ZM270.34 35.70H270.90C271.18 35.70 271.18 35.70 271.18 35.70C271.45 35.70 271.45 35.98 271.45 35.98C271.45 35.98 271.45 36.25 271.45 36.53C271.45 36.81 271.45 37.08 271.45 37.08H272.56V36.81C272.56 36.53 272.56 35.98 272.29 35.98C272.29 35.98 272.01 35.70 271.73 35.70C272.01 35.70 272.29 35.70 272.56 35.42C272.84 35.14 272.84 35.14 272.84 34.59C272.84 34.04 272.56 33.76 272.29 33.76C271.73 33.21 271.45 33.21 271.18 33.21C271.18 33.21 270.90 33.21 270.34 33.21C269.79 33.21 269.51 33.21 269.24 33.21V37.36H270.34V35.70Z" fill="#FFFFFF"/>
<path d="M126.16 31.55H110.08C110.08 31.55 105.92 52.03 105.08 57.56C104.25 63.10 103.42 70.85 122.55 70.85C130.32 70.85 138.91 68.36 141.41 68.36H145.85L152.22 31.55H135.86C135.86 31.55 131.98 54.24 131.43 57.01C130.87 59.78 129.21 61.99 125.33 61.99C121.44 61.99 120.89 59.22 121.72 55.07C122.83 50.92 126.16 31.55 126.16 31.55Z" fill="#FFFFFF"/>
<path d="M191.87 31.55H175.79C175.79 31.55 171.63 52.03 170.80 57.56C169.97 63.10 169.14 70.85 188.27 70.85C196.03 70.85 204.63 68.36 207.12 68.36H211.56L217.94 31.55H201.58C201.58 31.55 197.70 54.24 197.14 57.01C196.59 59.78 194.92 61.99 191.04 61.99C187.16 61.99 186.61 59.22 187.44 55.07C188.27 50.92 191.87 31.55 191.87 31.55Z" fill="#FFFFFF"/>
<path d="M165.53 69.46H149.45L158.88 15.77H174.96L165.53 69.46Z" fill="#FFFFFF"/>
<path d="M238.46 31.55H220.43L227.92 49.81L212.39 69.74H227.09L235.41 59.22L239.84 69.74H258.14L249.83 49.81L263.97 31.55H250.10L242.34 41.23L238.46 31.55Z" fill="#FFFFFF"/>
<path d="M84.84 16.05C106.19 16.05 106.47 29.33 105.92 33.48C105.36 37.08 105.36 37.08 102.59 52.86C99.82 68.63 77.36 69.74 74.31 69.74H45.19L55.17 16.05H84.84V16.05ZM70.70 26.56L65.43 59.22H74.03C80.96 59.22 84.29 54.52 85.67 47.88C87.06 41.23 86.78 41.51 87.34 37.64C87.89 33.21 87.62 26.56 79.57 26.56H70.70V26.56Z" fill="#FFFFFF"/>
</svg>
